<svg xmlns="http://www.w3.org/2000/svg" width="140" height="140"><rect x="0" y="0" width="100%" height="100%" fill="rgb(33, 147, 71)"  /><polyline points="7.700000000000001,0,15.633333333333335,0,23.333333333333336,7.700000000000001,23.333333333333336,15.633333333333335,15.633333333333335,23.333333333333336,7.700000000000001,23.333333333333336,0,15.633333333333335,0,7.700000000000001,7.700000000000001,0" fill="#ddd" fill-opacity="0.05466666666666667" stroke="#000" stroke-opacity="0.02" transform="translate(0.0, 0.0)"  /><polyline points="7.700000000000001,0,15.633333333333335,0,23.333333333333336,7.700000000000001,23.333333333333336,15.633333333333335,15.633333333333335,23.333333333333336,7.700000000000001,23.333333333333336,0,15.633333333333335,0,7.700000000000001,7.700000000000001,0" fill="#222" fill-opacity="0.06333333333333334" stroke="#000" stroke-opacity="0.02" transform="translate(23.333333333333336, 0.0)"  /><polyline points="7.700000000000001,0,15.633333333333335,0,23.333333333333336,7.700000000000001,23.333333333333336,15.633333333333335,15.633333333333335,23.333333333333336,7.700000000000001,23.333333333333336,0,15.633333333333335,0,7.700000000000001,7.700000000000001,0" fill="#ddd" fill-opacity="0.14133333333333334" stroke="#000" stroke-opacity="0.02" transform="translate(46.66666666666667, 0.0)"  /><polyline points="7.700000000000001,0,15.633333333333335,0,23.333333333333336,7.700000000000001,23.333333333333336,15.633333333333335,15.633333333333335,23.333333333333336,7.700000000000001,23.333333333333336,0,15.633333333333335,0,7.700000000000001,7.700000000000001,0" fill="#ddd" fill-opacity="0.07200000000000001" stroke="#000" stroke-opacity="0.02" transform="translate(70.0, 0.0)"  /><polyline points="7.700000000000001,0,15.633333333333335,0,23.333333333333336,7.700000000000001,23.333333333333336,15.633333333333335,15.633333333333335,23.333333333333336,7.700000000000001,23.333333333333336,0,15.633333333333335,0,7.700000000000001,7.700000000000001,0" fill="#ddd" fill-opacity="0.12400000000000001" stroke="#000" stroke-opacity="0.02" transform="translate(93.33333333333334, 0.0)"  /><polyline points="7.700000000000001,0,15.633333333333335,0,23.333333333333336,7.700000000000001,23.333333333333336,15.633333333333335,15.633333333333335,23.333333333333336,7.700000000000001,23.333333333333336,0,15.633333333333335,0,7.700000000000001,7.700000000000001,0" fill="#ddd" fill-opacity="0.12400000000000001" stroke="#000" stroke-opacity="0.02" transform="translate(116.66666666666669, 0.0)"  /><polyline points="7.700000000000001,0,15.633333333333335,0,23.333333333333336,7.700000000000001,23.333333333333336,15.633333333333335,15.633333333333335,23.333333333333336,7.700000000000001,23.333333333333336,0,15.633333333333335,0,7.700000000000001,7.700000000000001,0" fill="#ddd" fill-opacity="0.12400000000000001" stroke="#000" stroke-opacity="0.02" transform="translate(0.0, 23.333333333333336)"  /><polyline points="7.700000000000001,0,15.633333333333335,0,23.333333333333336,7.700000000000001,23.333333333333336,15.633333333333335,15.633333333333335,23.333333333333336,7.700000000000001,23.333333333333336,0,15.633333333333335,0,7.700000000000001,7.700000000000001,0" fill="#ddd" fill-opacity="0.12400000000000001" stroke="#000" stroke-opacity="0.02" transform="translate(23.333333333333336, 23.333333333333336)"  /><polyline points="7.700000000000001,0,15.633333333333335,0,23.333333333333336,7.700000000000001,23.333333333333336,15.633333333333335,15.633333333333335,23.333333333333336,7.700000000000001,23.333333333333336,0,15.633333333333335,0,7.700000000000001,7.700000000000001,0" fill="#222" fill-opacity="0.06333333333333334" stroke="#000" stroke-opacity="0.02" transform="translate(46.66666666666667, 23.333333333333336)"  /><polyline points="7.700000000000001,0,15.633333333333335,0,23.333333333333336,7.700000000000001,23.333333333333336,15.633333333333335,15.633333333333335,23.333333333333336,7.700000000000001,23.333333333333336,0,15.633333333333335,0,7.700000000000001,7.700000000000001,0" fill="#ddd" fill-opacity="0.03733333333333333" stroke="#000" stroke-opacity="0.02" transform="translate(70.0, 23.333333333333336)"  /><polyline points="7.700000000000001,0,15.633333333333335,0,23.333333333333336,7.700000000000001,23.333333333333336,15.633333333333335,15.633333333333335,23.333333333333336,7.700000000000001,23.333333333333336,0,15.633333333333335,0,7.700000000000001,7.700000000000001,0" fill="#222" fill-opacity="0.13266666666666665" stroke="#000" stroke-opacity="0.02" transform="translate(93.33333333333334, 23.333333333333336)"  /><polyline points="7.700000000000001,0,15.633333333333335,0,23.333333333333336,7.700000000000001,23.333333333333336,15.633333333333335,15.633333333333335,23.333333333333336,7.700000000000001,23.333333333333336,0,15.633333333333335,0,7.700000000000001,7.700000000000001,0" fill="#ddd" fill-opacity="0.03733333333333333" stroke="#000" stroke-opacity="0.02" transform="translate(116.66666666666669, 23.333333333333336)"  /><polyline points="7.700000000000001,0,15.633333333333335,0,23.333333333333336,7.700000000000001,23.333333333333336,15.633333333333335,15.633333333333335,23.333333333333336,7.700000000000001,23.333333333333336,0,15.633333333333335,0,7.700000000000001,7.700000000000001,0" fill="#222" fill-opacity="0.11533333333333334" stroke="#000" stroke-opacity="0.02" transform="translate(0.0, 46.66666666666667)"  /><polyline points="7.700000000000001,0,15.633333333333335,0,23.333333333333336,7.700000000000001,23.333333333333336,15.633333333333335,15.633333333333335,23.333333333333336,7.700000000000001,23.333333333333336,0,15.633333333333335,0,7.700000000000001,7.700000000000001,0" fill="#ddd" fill-opacity="0.14133333333333334" stroke="#000" stroke-opacity="0.02" transform="translate(23.333333333333336, 46.66666666666667)"  /><polyline points="7.700000000000001,0,15.633333333333335,0,23.333333333333336,7.700000000000001,23.333333333333336,15.633333333333335,15.633333333333335,23.333333333333336,7.700000000000001,23.333333333333336,0,15.633333333333335,0,7.700000000000001,7.700000000000001,0" fill="#222" fill-opacity="0.098" stroke="#000" stroke-opacity="0.02" transform="translate(46.66666666666667, 46.66666666666667)"  /><polyline points="7.700000000000001,0,15.633333333333335,0,23.333333333333336,7.700000000000001,23.333333333333336,15.633333333333335,15.633333333333335,23.333333333333336,7.700000000000001,23.333333333333336,0,15.633333333333335,0,7.700000000000001,7.700000000000001,0" fill="#ddd" fill-opacity="0.10666666666666667" stroke="#000" stroke-opacity="0.02" transform="translate(70.0, 46.66666666666667)"  /><polyline points="7.700000000000001,0,15.633333333333335,0,23.333333333333336,7.700000000000001,23.333333333333336,15.633333333333335,15.633333333333335,23.333333333333336,7.700000000000001,23.333333333333336,0,15.633333333333335,0,7.700000000000001,7.700000000000001,0" fill="#222" fill-opacity="0.15" stroke="#000" stroke-opacity="0.02" transform="translate(93.33333333333334, 46.66666666666667)"  /><polyline points="7.700000000000001,0,15.633333333333335,0,23.333333333333336,7.700000000000001,23.333333333333336,15.633333333333335,15.633333333333335,23.333333333333336,7.700000000000001,23.333333333333336,0,15.633333333333335,0,7.700000000000001,7.700000000000001,0" fill="#ddd" fill-opacity="0.08933333333333333" stroke="#000" stroke-opacity="0.02" transform="translate(116.66666666666669, 46.66666666666667)"  /><polyline points="7.700000000000001,0,15.633333333333335,0,23.333333333333336,7.700000000000001,23.333333333333336,15.633333333333335,15.633333333333335,23.333333333333336,7.700000000000001,23.333333333333336,0,15.633333333333335,0,7.700000000000001,7.700000000000001,0" fill="#222" fill-opacity="0.098" stroke="#000" stroke-opacity="0.02" transform="translate(0.0, 70.0)"  /><polyline points="7.700000000000001,0,15.633333333333335,0,23.333333333333336,7.700000000000001,23.333333333333336,15.633333333333335,15.633333333333335,23.333333333333336,7.700000000000001,23.333333333333336,0,15.633333333333335,0,7.700000000000001,7.700000000000001,0" fill="#ddd" fill-opacity="0.03733333333333333" stroke="#000" stroke-opacity="0.02" transform="translate(23.333333333333336, 70.0)"  /><polyline points="7.700000000000001,0,15.633333333333335,0,23.333333333333336,7.700000000000001,23.333333333333336,15.633333333333335,15.633333333333335,23.333333333333336,7.700000000000001,23.333333333333336,0,15.633333333333335,0,7.700000000000001,7.700000000000001,0" fill="#ddd" fill-opacity="0.02" stroke="#000" stroke-opacity="0.02" transform="translate(46.66666666666667, 70.0)"  /><polyline points="7.700000000000001,0,15.633333333333335,0,23.333333333333336,7.700000000000001,23.333333333333336,15.633333333333335,15.633333333333335,23.333333333333336,7.700000000000001,23.333333333333336,0,15.633333333333335,0,7.700000000000001,7.700000000000001,0" fill="#222" fill-opacity="0.028666666666666667" stroke="#000" stroke-opacity="0.02" transform="translate(70.0, 70.0)"  /><polyline points="7.700000000000001,0,15.633333333333335,0,23.333333333333336,7.700000000000001,23.333333333333336,15.633333333333335,15.633333333333335,23.333333333333336,7.700000000000001,23.333333333333336,0,15.633333333333335,0,7.700000000000001,7.700000000000001,0" fill="#ddd" fill-opacity="0.07200000000000001" stroke="#000" stroke-opacity="0.02" transform="translate(93.33333333333334, 70.0)"  /><polyline points="7.700000000000001,0,15.633333333333335,0,23.333333333333336,7.700000000000001,23.333333333333336,15.633333333333335,15.633333333333335,23.333333333333336,7.700000000000001,23.333333333333336,0,15.633333333333335,0,7.700000000000001,7.700000000000001,0" fill="#222" fill-opacity="0.11533333333333334" stroke="#000" stroke-opacity="0.02" transform="translate(116.66666666666669, 70.0)"  /><polyline points="7.700000000000001,0,15.633333333333335,0,23.333333333333336,7.700000000000001,23.333333333333336,15.633333333333335,15.633333333333335,23.333333333333336,7.700000000000001,23.333333333333336,0,15.633333333333335,0,7.700000000000001,7.700000000000001,0" fill="#ddd" fill-opacity="0.14133333333333334" stroke="#000" stroke-opacity="0.02" transform="translate(0.0, 93.33333333333334)"  /><polyline points="7.700000000000001,0,15.633333333333335,0,23.333333333333336,7.700000000000001,23.333333333333336,15.633333333333335,15.633333333333335,23.333333333333336,7.700000000000001,23.333333333333336,0,15.633333333333335,0,7.700000000000001,7.700000000000001,0" fill="#ddd" fill-opacity="0.10666666666666667" stroke="#000" stroke-opacity="0.02" transform="translate(23.333333333333336, 93.33333333333334)"  /><polyline points="7.700000000000001,0,15.633333333333335,0,23.333333333333336,7.700000000000001,23.333333333333336,15.633333333333335,15.633333333333335,23.333333333333336,7.700000000000001,23.333333333333336,0,15.633333333333335,0,7.700000000000001,7.700000000000001,0" fill="#ddd" fill-opacity="0.05466666666666667" stroke="#000" stroke-opacity="0.02" transform="translate(46.66666666666667, 93.33333333333334)"  /><polyline points="7.700000000000001,0,15.633333333333335,0,23.333333333333336,7.700000000000001,23.333333333333336,15.633333333333335,15.633333333333335,23.333333333333336,7.700000000000001,23.333333333333336,0,15.633333333333335,0,7.700000000000001,7.700000000000001,0" fill="#ddd" fill-opacity="0.05466666666666667" stroke="#000" stroke-opacity="0.02" transform="translate(70.0, 93.33333333333334)"  /><polyline points="7.700000000000001,0,15.633333333333335,0,23.333333333333336,7.700000000000001,23.333333333333336,15.633333333333335,15.633333333333335,23.333333333333336,7.700000000000001,23.333333333333336,0,15.633333333333335,0,7.700000000000001,7.700000000000001,0" fill="#ddd" fill-opacity="0.14133333333333334" stroke="#000" stroke-opacity="0.02" transform="translate(93.33333333333334, 93.33333333333334)"  /><polyline points="7.700000000000001,0,15.633333333333335,0,23.333333333333336,7.700000000000001,23.333333333333336,15.633333333333335,15.633333333333335,23.333333333333336,7.700000000000001,23.333333333333336,0,15.633333333333335,0,7.700000000000001,7.700000000000001,0" fill="#ddd" fill-opacity="0.02" stroke="#000" stroke-opacity="0.02" transform="translate(116.66666666666669, 93.33333333333334)"  /><polyline points="7.700000000000001,0,15.633333333333335,0,23.333333333333336,7.700000000000001,23.333333333333336,15.633333333333335,15.633333333333335,23.333333333333336,7.700000000000001,23.333333333333336,0,15.633333333333335,0,7.700000000000001,7.700000000000001,0" fill="#ddd" fill-opacity="0.14133333333333334" stroke="#000" stroke-opacity="0.02" transform="translate(0.0, 116.66666666666669)"  /><polyline points="7.700000000000001,0,15.633333333333335,0,23.333333333333336,7.700000000000001,23.333333333333336,15.633333333333335,15.633333333333335,23.333333333333336,7.700000000000001,23.333333333333336,0,15.633333333333335,0,7.700000000000001,7.700000000000001,0" fill="#222" fill-opacity="0.13266666666666665" stroke="#000" stroke-opacity="0.02" transform="translate(23.333333333333336, 116.66666666666669)"  /><polyline points="7.700000000000001,0,15.633333333333335,0,23.333333333333336,7.700000000000001,23.333333333333336,15.633333333333335,15.633333333333335,23.333333333333336,7.700000000000001,23.333333333333336,0,15.633333333333335,0,7.700000000000001,7.700000000000001,0" fill="#ddd" fill-opacity="0.14133333333333334" stroke="#000" stroke-opacity="0.02" transform="translate(46.66666666666667, 116.66666666666669)"  /><polyline points="7.700000000000001,0,15.633333333333335,0,23.333333333333336,7.700000000000001,23.333333333333336,15.633333333333335,15.633333333333335,23.333333333333336,7.700000000000001,23.333333333333336,0,15.633333333333335,0,7.700000000000001,7.700000000000001,0" fill="#ddd" fill-opacity="0.03733333333333333" stroke="#000" stroke-opacity="0.02" transform="translate(70.0, 116.66666666666669)"  /><polyline points="7.700000000000001,0,15.633333333333335,0,23.333333333333336,7.700000000000001,23.333333333333336,15.633333333333335,15.633333333333335,23.333333333333336,7.700000000000001,23.333333333333336,0,15.633333333333335,0,7.700000000000001,7.700000000000001,0" fill="#222" fill-opacity="0.15" stroke="#000" stroke-opacity="0.02" transform="translate(93.33333333333334, 116.66666666666669)"  /><polyline points="7.700000000000001,0,15.633333333333335,0,23.333333333333336,7.700000000000001,23.333333333333336,15.633333333333335,15.633333333333335,23.333333333333336,7.700000000000001,23.333333333333336,0,15.633333333333335,0,7.700000000000001,7.700000000000001,0" fill="#ddd" fill-opacity="0.10666666666666667" stroke="#000" stroke-opacity="0.02" transform="translate(116.66666666666669, 116.66666666666669)"  /></svg>